<svg viewBox="0 -100 3000 1300" xmlns="http://www.w3.org/2000/svg" xmlns:xlink="http://www.w3.org/1999/xlink"
  font-size="80px" font-family="Inter,sans-serif" font-weight="400">
  <filter id="shadow" x="-20%" width="140%" y="-20%" height="140%">
    <feDropShadow dx="0" dy="0" stdDeviation="20" flood-opacity="0.7" />
  </filter>
  <defs>
    <marker id="arrow" viewBox="0 0 10 10" refX="5" refY="5" orient="auto-start-reverse">
      <use xlink:href="common.svg?a#arrow" />
    </marker>
  </defs>

  <g transform="translate(1015,-25) scale(0.6)">

    <g transform="translate(-950,225) skewY(-10)">
      <use xlink:href="common.svg?a#storage" />
      <text x="50" y="120" fill="#fff">Durable Object</text>
    </g>
    <use xlink:href="common.svg?a#logo" transform="translate(-140,20) scale(0.4)" />
    <line stroke="#d81b60" stroke-width="40" x1="-240" y1="225" x2="160" y2="450" marker-start="url(#arrow)" />

    <g transform="translate(-400,450) skewY(-10)">
      <use xlink:href="common.svg?a#storage" />
      <text x="50" y="120" fill="#fff">Workers</text>
    </g>
    <line stroke="#d81b60" stroke-width="40" x1="160" y1="450" x2="560" y2="675" stroke-linecap="round" />

    <use xlink:href="cloudflare.svg?a#logo" transform="translate(-700,100) skewY(-10)" />

  </g>

  <g transform="scale(0.6)">
    <line stroke="#d81b60" stroke-width="40" x1="2150" y1="800" x2="2000" y2="1100" marker-start="url(#arrow)"
      marker-end="url(#arrow)" stroke-linecap="round" />
    <line stroke="#d81b60" stroke-width="40" x1="2800" y1="700" x2="3000" y2="1100" marker-start="url(#arrow)"
      marker-end="url(#arrow)" stroke-linecap="round" />
  </g>

  <g transform="translate(560,600) scale(0.6)">
    <g transform="translate(340,64) skewY(10)">
      <use xlink:href="common.svg?a#storage" />
      <text x="850" y="120" fill="#fff" text-anchor="end">Synchronizer</text>
    </g>
    <g transform="translate(340,289) skewY(10)">
      <use xlink:href="common.svg?a#storage" />
      <text x="850" y="120" fill="#fff" text-anchor="end">Local storage</text>
    </g>
    <use xlink:href="common.svg?a#logo" />
    <g transform="translate(-560,54) skewY(10)">
      <use xlink:href="common.svg?a#screen" />
      <use xlink:href="common.svg?a#app" />
      <text x="310" y="85" fill="#000" font-size="70px">Synced
        app</text>
    </g>
  </g>
  <g transform="translate(2040,600) scale(0.6)">
    <g transform="translate(-560,225) skewY(-10)">
      <use xlink:href="common.svg?a#storage" />
      <text x="50" y="120" fill="#fff">Synchronizer</text>
    </g>
    <g transform="translate(-560,450) skewY(-10)">
      <use xlink:href="common.svg?a#storage" />
      <text x="50" y="120" fill="#fff">Local storage</text>
    </g>
    <use xlink:href="common.svg?a#logo" />
    <g transform="translate(340,215) skewY(-10)">
      <use xlink:href="common.svg?a#screen" />
      <use xlink:href="common.svg?a#app" />
      <text x="310" y="85" fill="#000" font-size="70px">Synced
        app</text>
    </g>
  </g>

</svg>