<?xml version="1.0" encoding="UTF-8" standalone="no"?>
<!-- Created with Inkscape (http://www.inkscape.org/) -->

<svg
   version="1.1"
   id="svg2"
   width="405.58667"
   height="405.57333"
   viewBox="0 0 405.58667 405.57333"
   sodipodi:docname="merge.eps"
   xmlns:inkscape="http://www.inkscape.org/namespaces/inkscape"
   xmlns:sodipodi="http://sodipodi.sourceforge.net/DTD/sodipodi-0.dtd"
   xmlns="http://www.w3.org/2000/svg"
   xmlns:svg="http://www.w3.org/2000/svg">
  <defs
     id="defs6" />
  <sodipodi:namedview
     id="namedview4"
     pagecolor="#ffffff"
     bordercolor="#000000"
     borderopacity="0.25"
     inkscape:showpageshadow="2"
     inkscape:pageopacity="0.0"
     inkscape:pagecheckerboard="0"
     inkscape:deskcolor="#d1d1d1" />
  <g
     id="g8"
     inkscape:groupmode="layer"
     inkscape:label="ink_ext_XXXXXX"
     transform="matrix(1.3333333,0,0,-1.3333333,0,405.57333)">
    <g
       id="g10"
       transform="scale(0.1)">
      <path
         d="m 3008.82,1600.47 c 44.14,-44.08 44.14,-115.2 0,-159.2 L 1600.6,32.9883 c -44,-43.9844 -115.25,-43.9844 -159.26,0 L 33.1211,1441.27 c -44.1406,43.94 -44.1406,115.12 -0.1367,159.1 L 1441.34,3008.83 c 44.01,43.92 115.26,43.92 159.26,0"
         style="fill:#f7d51f;fill-opacity:1;fill-rule:evenodd;stroke:none"
         id="path12" />
      <path
         d="m 2988.71,1579.67 -1408.5,1408.51 c -32.28,32.29 -84.84,32.29 -117.13,0 L 54.5469,1579.67 c -32.2852,-32.29 -32.2852,-84.85 0,-117.13 L 1463.08,54.0039 c 32.29,-32.2851 84.85,-32.2851 117.13,0 L 2988.71,1462.54 c 32.3,32.28 32.3,84.84 0,117.13 m -31.53,-30.78 c 15.78,-15.78 15.78,-39.81 0,-55.55 L 1549.41,85.5664 c -15.74,-15.0391 -39.8,-15.0391 -54.8,0 L 86.0898,1493.34 c -15.0195,15.74 -15.0195,39.77 0,54.79 L 1494.61,2956.66 c 15,15 39.06,15 54.8,0 L 2957.18,1548.89"
         style="fill:#261c1d;fill-opacity:1;fill-rule:evenodd;stroke:none"
         id="path14" />
      <path
         d="m 1356.05,1826.99 v -71.19 c -0.08,-263.01 -209.69,-471.74 -394.706,-681.87 L 1130.68,904.902 c 102.91,107.808 195.88,217.208 225.37,256.578 V 695.137 l 329.22,-0.157 -0.29,1130.72 176.31,-54.04 c 73.65,-27.05 118.63,41.8 93.47,92.85 l -432.26,632.27 -436,-632.27 c -25.06,-51.05 19.82,-119.9 93.5,-92.85"
         style="fill:#261c1d;fill-opacity:1;fill-rule:evenodd;stroke:none"
         id="path16" />
    </g>
  </g>
</svg>
