<?xml version="1.0" encoding="UTF-8"?>
<svg viewBox="0 0 3000 1100" xmlns="http://www.w3.org/2000/svg">
  <filter id="shadow" x="-20%" width="140%" y="-20%" height="140%">
    <feDropShadow dx="0" dy="0" stdDeviation="20" flood-opacity="0.7" />
  </filter>

  <g id="logo" filter="url(#shadow)">
    <path stroke="#fff" stroke-width="80" fill="none"
      d="M340 617a84 241 90 11.01 0zM131 475a94 254 70 10428-124 114 286 70 01-428 124zm0-140a94 254 70 10428-124 114 286 70 01-428 124zm-12-127a94 254 70 00306 38 90 260 90 01-306-38zm221 3a74 241 90 1 1.001 0z" />
    <path fill="#d81b60"
      d="M131 475a94 254 70 10428-124 114 286 70 01-428 124zm0-140a94 254 70 10428-124 114 286 70 01-428 124z" />
    <path
      d="M249 619a94 240 90 00308-128 114 289 70 01-308 128zM119 208a94 254 70 00306 38 90 260 90 01-306-38zm221 3a74 241 90 11.01 0z" />
  </g>

  <g id="screen">
    <rect height="620" width="900" rx="50" filter="url(#shadow)" fill="#777" stroke="#fff" stroke-width="10" />
    <path d="M0 120h900" stroke="#fff" stroke-width="10" />
    <circle cx="60" cy="60" r="25" fill="#f00a" />
    <circle cx="140" cy="60" r="25" fill="#ff0a" />
    <circle cx="220" cy="60" r="25" fill="#0f0a" />
  </g>

  <g id="app" stroke-width="20" stroke="#fff" fill="none">
    <path d="M90,225 h170" stroke="#333" />
    <path d="M90,325 h170" stroke="#333" />
    <path d="M90,425 h170" stroke="#333" />
    <path d="M320,225 h490" />
    <path d="M320,325 h490" />
    <path d="M320,425 h490" />
    <path d="M320,525 h490" />
  </g>

  <g id="cloud">
    <path filter="url(#shadow)"
      d="M0 410q0 210 210 210h560q130 0 130-130q0-130-130-130q0-360-360-360 q-205 0-205 205q-205 0-205 205" fill="#777"
      stroke="#fff" stroke-width="10" />
  </g>


  <g id="storage">
    <rect height="180" width="900" rx="50" filter="url(#shadow)" fill="#444" stroke="#fff" stroke-width="10" />
  </g>

  <path id="arrow" d="M 0 0 L 10 5 L 0 10 z" fill="#d81b60" />
</svg>