<svg viewBox="0 0 680 680" xmlns="http://www.w3.org/2000/svg" style="width:680px;height:680px">
  <path stroke="#fff" stroke-width="80" fill="none"
    d="M340 617a84 241 90 11.01 0zM131 475a94 254 70 10428-124 114 286 70 01-428 124zm0-140a94 254 70 10428-124 114 286 70 01-428 124zm-12-127a94 254 70 00306 38 90 260 90 01-306-38zm221 3a74 241 90 11.01 0z" />
  <path fill="#d81b60"
    d="M131 475a94 254 70 10428-124 114 286 70 01-428 124zm0-140a94 254 70 10428-124 114 286 70 01-428 124z" />
  <path
    d="M249 619a94 240 90 00308-128 114 289 70 01-308 128zM119 208a94 254 70 00306 38 90 260 90 01-306-38zm221 3a74 241 90 11.01 0z" />
</svg>