<svg xmlns="http://www.w3.org/2000/svg" viewBox="0 0 512 512">
  <path fill="#E34F26" d="M71,460 L30,0 481,0 440,460 255,512" />
  <path fill="#EF652A" d="M256,472 L405,431 440,37 256,37" />
  <path fill="#EBEBEB"
    d="M189,303 L181,208 176,150 256,150 256,94 255,94 114,94 115,109 129,265 132,295zM256,355 L255,355 192,338 188,293 158,293 132,293 139,382 255,414 256,414z" />
  <path fill="#FFF" d="M256,94 L256,150 333,150 318,338 256,355 256,414 371,382 372,372 385,223 392,150z" />


  <path fill="#fff" d="M256,94 L256,150 256,150 392,150 392,150 392,150 393,138 396,109 397,94z" />

</svg>