<?xml version="1.0" encoding="UTF-8"?><svg id="Layer_1" xmlns="http://www.w3.org/2000/svg" xmlns:xlink="http://www.w3.org/1999/xlink" viewBox="0 0 1024 720"><defs><style>.cls-1{fill:url(#linear-gradient);}.cls-1,.cls-2{stroke-width:0px;}.cls-2{fill:url(#linear-gradient-2);}</style><linearGradient id="linear-gradient" x1="252.24" y1="167.7" x2="950.82" y2="571.03" gradientUnits="userSpaceOnUse"><stop offset="0" stop-color="#05f"/><stop offset="1" stop-color="#00d5ff"/></linearGradient><linearGradient id="linear-gradient-2" x1="771.76" y1="552.3" x2="73.18" y2="148.98" gradientUnits="userSpaceOnUse"><stop offset="0" stop-color="#05f"/><stop offset="1" stop-color="#a0f"/></linearGradient></defs><path class="cls-1" d="M1011.74,381.48l-121.85-211.05c-15.01-26-42.74-42.01-72.76-42.01h-125.55c-10.78,0-17.52,11.67-12.13,21.01l27.25,47.21c5.01,8.66,14.25,14,24.25,14h54.87c20.01,0,38.5,10.68,48.51,28.01l90.55,156.84c10.01,17.33,10.01,38.68,0,56.01l-90.55,156.84c-10,17.33-28.5,28.01-48.51,28.01h-181.1c-20.01,0-38.5-10.68-48.51-28.01l-195.86-339.24c-5.39-9.34,1.35-21,12.13-21h54.86c10.78,0,17.52-11.67,12.13-21l-27.25-47.21c-5.01-8.66-14.25-14-24.26-14h-118.5c-10.01,0-19.25,5.34-24.26,14l-59.25,102.63c-5,8.66-5,19.34,0,28.01l27.25,47.21c5.39,9.33,18.86,9.33,24.26,0l27.43-47.51c5.39-9.33,18.86-9.33,24.25,0l211.51,366.35c15.01,26,42.74,42.01,72.77,42.01h243.7c30.02,0,57.75-16.02,72.77-42.01l121.85-211.05c15.01-26,15.01-58.03,0-84.02Z"/><path class="cls-2" d="M317.29,523.37c-5-8.67-14.25-14-24.25-14h-54.87c-20.01,0-38.5-10.68-48.51-28.01l-90.55-156.84c-10.01-17.33-10.01-38.68,0-56.01l90.55-156.84c10.01-17.33,28.5-28.01,48.51-28.01h181.11c20.01,0,38.5,10.68,48.51,28.01l195.86,339.24c5.39,9.34-1.35,21-12.13,21h-54.86c-10.78,0-17.52,11.67-12.13,21l27.25,47.21c5,8.67,14.25,14,24.25,14h118.5c10.01,0,19.25-5.34,24.25-14l59.25-102.63c5.01-8.66,5.01-19.34,0-28.01l-27.25-47.21c-5.39-9.33-18.86-9.33-24.25,0l-27.43,47.52c-5.39,9.33-18.86,9.33-24.26,0L523.33,43.45c-15.01-25.99-42.74-42.01-72.76-42.01h-243.7c-30.02,0-57.75,16.02-72.76,42.01L12.26,254.5c-15.01,25.99-15.01,58.02,0,84.02l121.85,211.05c15.01,26,42.75,42.01,72.77,42.01h125.55c10.78,0,17.51-11.67,12.13-21l-27.26-47.21Z"/></svg>