<svg width="304" height="320" viewBox="0 0 304 320" fill="none" xmlns="http://www.w3.org/2000/svg">
  <path
    d="M304 10.7093L296.445 5.10508L281.516 20.96L269.546 3.80586L262.662 6.94401L272.136 30.9205L267.749 35.5797L233.742 0L226.035 3.7888L256.275 68.2688L227.939 78.1525H227.263L211.902 60.0299L196.529 78.1675H107.469L92.0957 60.0299L76.6899 78.2059H76.2153L47.7229 68.2688L77.9655 3.7888L70.2582 0L36.2512 35.5797L31.8639 30.9205L41.3385 6.94186L34.4538 3.80586L22.4838 20.9579L7.55475 5.10508L0 10.7093L23.2419 49.1883L11.2806 61.7024L15.4638 93.376L43.166 103.872L43.1101 117.566H16.8768V123.477L27.0321 137.847L43.1101 143.62V236.576L84.206 297.252L93.6247 320L108.425 298.588L123.766 320L137.197 298.588L151.999 320L166.799 298.588L180.232 320L195.571 298.588L210.371 320L219.792 297.252L260.886 236.576V143.62L276.966 137.847L287.119 123.477V117.566H260.886L260.926 103.836L288.534 93.376L292.715 61.7045L280.754 49.1904L303.998 10.7115L304 10.7093ZM183.987 260.277H98.6841L109.348 238.743L120.01 260.277L130.673 245.845L141.337 260.277L151.999 245.845L162.661 260.277L173.325 245.845L183.987 260.277L194.65 238.743L205.314 260.277H183.987ZM236.209 161.741L191.854 176.205L189.942 217.02L151.952 225.372L113.961 217.02L112.05 176.205L67.6942 161.741V139.953L125.036 156.073L124.338 211.1H179.566L178.866 156.073L236.209 139.953V161.741Z"
    fill="#4ff8d2" />
</svg>