
<svg xmlns="http://www.w3.org/2000/svg" viewBox="0 0 213.186 170.301">
  <polygon fill="#2E465F" points="39.688,22.524 64.446,22.524 93.248,72.41 106.591,49.3 78.13,0 0,0 67.527,116.962 80.871,93.852" />
  <path fill="#3AB378" d="M132.314,140.07l13.343-23.108L213.186,0h-78.131l-28.464,49.3L93.248,72.41L80.871,93.852l-13.343,23.11 L36.73,170.301h61.59h16.54l12.973-22.467L132.314,140.07z M85.35,147.834h-8.961l4.481-7.762l13.343-23.11l12.377-21.44 l13.343-23.111l28.801-49.886h24.759L132.314,93.85l-13.343,23.112l-12.381,21.441l-5.443,9.431H85.35z" />
</svg>
