<svg xmlns="http://www.w3.org/2000/svg" viewBox="300 300 1400 1400"><path d="M606.785 462.869l4.185-.007c3.832-.005 7.663-.005 11.494-.003 4.17 0 8.339-.004 12.508-.008 8.268-.008 16.536-.01 24.804-.01 9.904-.002 19.808-.008 29.713-.015 23.936-.016 47.873-.022 71.81-.027 11.326-.002 22.65-.006 33.976-.01a480490.651 480490.651 0 01145.62-.03h3.678c39.343-.003 78.686-.02 118.029-.042a221830.789 221830.789 0 01138.512-.04h3.409c18.091-.002 36.182-.013 54.274-.027 18.188-.015 36.376-.018 54.564-.01 10.8.004 21.602 0 32.402-.015a7824.3 7824.3 0 0121.667.001c4.11.006 8.22.006 12.33-.006 38.059-.11 38.059-.11 55.365 6.067l2.222.773c32.356 11.648 56.665 34.982 71.323 65.958 4.608 10.043 8.13 20.507 11.763 30.93 2.054 5.892 4.133 11.774 6.21 17.658l2.142 6.08c4.664 13.236 9.461 26.421 14.278 39.601a7818.02 7818.02 0 0120.062 55.625l1.258 3.53a898059830.97 898059830.97 0 003.742 10.498l1.235 3.465a11639.726 11639.726 0 0013.88 38.664l5.542 15.378c3.367 9.34 6.729 18.68 10.091 28.022l5.627 15.631 2.25 6.25 1.125 3.125 4.5 12.5 2.252 6.255c1.865 5.18 3.73 10.361 5.592 15.543 3.49 9.705 6.988 19.407 10.515 29.098 1.653 4.545 3.301 9.09 4.95 13.636.781 2.153 1.566 4.305 2.352 6.456 13.082 35.778 19.578 72.823 3.109 108.805-10.056 21.043-24.375 37.898-42.145 52.832a2389.978 2389.978 0 00-8.502 7.235c-4.775 4.096-9.414 8.322-14.018 12.609a381.008 381.008 0 01-10.535 9.457c-2.282 1.993-4.517 4.034-6.757 6.074a223.967 223.967 0 01-10.375 8.812c-6.066 4.903-11.695 10.236-17.368 15.583a289.186 289.186 0 01-9.558 8.593c-2.324 2.016-4.604 4.075-6.887 6.137-5.323 4.8-10.689 9.54-16.152 14.18-6.581 5.594-13.046 11.277-19.368 17.164a388.092 388.092 0 01-10.523 9.449 544.096 544.096 0 00-6.957 6.207c-5.323 4.8-10.689 9.54-16.152 14.18-6.581 5.594-13.046 11.277-19.368 17.164a381.008 381.008 0 01-10.535 9.457c-2.282 1.993-4.517 4.034-6.757 6.074a223.967 223.967 0 01-10.375 8.812c-6.066 4.903-11.695 10.236-17.368 15.583a289.186 289.186 0 01-9.558 8.593c-2.324 2.016-4.604 4.075-6.887 6.137-5.323 4.8-10.689 9.54-16.152 14.18-6.581 5.594-13.046 11.277-19.368 17.164a381.008 381.008 0 01-10.535 9.457c-2.282 1.993-4.517 4.034-6.757 6.074a223.967 223.967 0 01-10.375 8.812c-6.066 4.903-11.695 10.236-17.368 15.583a289.186 289.186 0 01-9.558 8.593c-2.324 2.016-4.604 4.075-6.887 6.137-5.323 4.8-10.689 9.54-16.152 14.18-6.581 5.594-13.046 11.277-19.368 17.164a388.092 388.092 0 01-10.523 9.449 544.096 544.096 0 00-6.957 6.207c-5.323 4.8-10.689 9.54-16.152 14.18-6.581 5.594-13.046 11.277-19.368 17.164a381.008 381.008 0 01-10.535 9.457c-2.282 1.993-4.517 4.034-6.757 6.074a223.967 223.967 0 01-10.375 8.812c-6.066 4.903-11.695 10.236-17.368 15.583a289.186 289.186 0 01-9.558 8.593c-2.324 2.016-4.604 4.075-6.887 6.137-7.702 6.943-15.537 13.729-23.434 20.45a398.98 398.98 0 00-6.539 5.695c-16.214 14.162-35.105 22.614-56.027 27.355l-3.023.687c-24.866 4.7-52.391.743-74.977-10.687l-2.973-1.453c-13.219-6.743-24.099-16.289-35.218-25.972-1.83-1.594-3.665-3.183-5.5-4.77-3.142-2.719-6.28-5.44-9.418-8.164-3.129-2.715-6.26-5.428-9.391-8.141l-3.75-3.25-1.875-1.625-412.5-357.5-3.748-3.248a14929.324 14929.324 0 01-13.19-11.44l-1.871-1.624a2612.51 2612.51 0 00-14.642-12.568 446.705 446.705 0 01-10.111-8.933 231.983 231.983 0 00-10.25-8.75c-4.78-3.866-9.31-7.946-13.829-12.113-2.59-2.32-5.253-4.483-7.984-6.637-27.032-21.965-44.43-50.665-48.554-85.618-2.62-29.288 6.026-54.941 16.125-81.973a6534.465 6534.465 0 006.345-17.085l1.444-3.895c4.714-12.717 9.319-25.472 13.89-38.241a5464.976 5464.976 0 0119.188-52.625 6506.866 6506.866 0 0022.437-61.688 11736.552 11736.552 0 0136.615-100.624c2.487-6.75 4.976-13.499 7.47-20.246l2.485-6.735 1.215-3.29a1727.006 1727.006 0 006.048-16.66l1.211-3.392c.75-2.104 1.496-4.209 2.238-6.315C492.77 531.15 501.753 514.825 516 500l2.438-2.594c23.162-24.031 55.618-34.583 88.347-34.537z" fill="#408DFF"/><path d="M644.213 570.872l3.145-.009 3.441.006 3.682-.007c3.384-.004 6.768-.005 10.152-.003 3.678 0 7.355-.004 11.033-.008 7.299-.008 14.598-.01 21.897-.01 8.741-.002 17.482-.008 26.223-.015 21.13-.016 42.26-.022 63.39-.027 9.996-.002 19.993-.006 29.989-.01a374089.197 374089.197 0 01128.523-.03h3.247c34.727-.003 69.455-.02 104.182-.042a172765.97 172765.97 0 01122.24-.04h3.009c15.968-.002 31.937-.013 47.905-.027 16.055-.015 32.111-.018 48.167-.01 9.534.004 19.07 0 28.604-.015 6.376-.01 12.752-.009 19.128.001 3.628.006 7.256.006 10.885-.006 31.381-.103 54.956 4.661 77.945 27.38 8.259 8.399 13.67 18.618 17.844 29.535l1.276 3.267c4.254 10.976 8.233 22.051 12.15 33.151 1.721 4.876 3.453 9.747 5.184 14.619l2.673 7.53a6666.536 6666.536 0 0011.61 32.414l3.228 8.96c3.334 9.257 6.67 18.512 10.009 27.766a35203.24 35203.24 0 017.117 19.745c1.293 3.59 2.587 7.18 3.884 10.77 1.219 3.374 2.435 6.75 3.65 10.126.66 1.835 1.324 3.669 1.988 5.503 8.018 22.313 11.218 42.758 1.009 64.987-7.492 15.591-19.055 25.386-33.497 34.377l-3.335 2.105c-3.26 2.055-6.524 4.1-9.79 6.145-2.474 1.56-4.945 3.124-7.417 4.688a3746.28 3746.28 0 01-6.845 4.32A4119.656 4119.656 0 001416 928a8525.504 8525.504 0 01-32.313 20.459A7432.301 7432.301 0 001356 966a8546.578 8546.578 0 01-32.313 20.459 8096.004 8096.004 0 00-30.495 19.33 5617 5617 0 01-20.008 12.672A5086.065 5086.065 0 001255 1030a8536.025 8536.025 0 01-32.313 20.459A7432.301 7432.301 0 001195 1068a8190.303 8190.303 0 01-32.442 20.54 6768.64 6768.64 0 00-4.958 3.126l-4.581 2.887c-7.036 4.439-14.02 8.948-21.019 13.447l217 1c-1.962 3.924-3.395 5.497-6.625 8.313l-2.727 2.394L1337 1122a9592.06 9592.06 0 00-4 3.5l-1.937 1.688c-3.238 2.845-6.43 5.74-9.63 8.628a537.057 537.057 0 01-6.37 5.622c-3.229 2.81-6.4 5.678-9.563 8.562a642.735 642.735 0 01-11.473 10.223 651.599 651.599 0 00-7.027 6.277 637.265 637.265 0 01-8.937 7.938c-3.175 2.76-6.278 5.59-9.375 8.437a217.902 217.902 0 01-10.938 9.375c-6.05 4.878-11.653 10.193-17.305 15.52a289.186 289.186 0 01-9.558 8.593c-2.324 2.016-4.604 4.075-6.887 6.137a829.036 829.036 0 01-10.937 9.688 718.073 718.073 0 00-7.063 6.312 829.036 829.036 0 01-10.937 9.688 718.073 718.073 0 00-7.063 6.312 798.165 798.165 0 01-10.95 9.695c-2.31 2.035-4.585 4.107-6.862 6.18a223.967 223.967 0 01-10.375 8.813c-6.066 4.902-11.695 10.235-17.368 15.582a289.186 289.186 0 01-9.558 8.593c-2.324 2.016-4.604 4.075-6.887 6.137a829.036 829.036 0 01-10.937 9.688 718.073 718.073 0 00-7.063 6.312c-5.323 4.8-10.689 9.54-16.152 14.18-6.581 5.594-13.046 11.277-19.368 17.164a372.51 372.51 0 01-10.542 9.46 225.272 225.272 0 00-4.188 3.766c-18.393 16.92-35.98 26.979-61.68 26.278-6.476-.335-12.115-1.791-18.07-4.348l-2.996-1.215c-8.564-3.842-15.13-9.541-22.004-15.785l-2.656-2.395a1940.884 1940.884 0 01-4.89-4.433c-2.554-2.26-5.174-4.408-7.829-6.547-4.554-3.682-8.862-7.554-13.146-11.54a185.602 185.602 0 00-9.916-8.522c-4.778-3.843-9.253-7.931-13.725-12.12-4.212-3.922-8.602-7.562-13.092-11.166-3.01-2.495-5.885-5.115-8.746-7.777-3.733-3.474-7.524-6.8-11.5-10-4.519-3.636-8.78-7.468-13.022-11.416a185.627 185.627 0 00-9.915-8.521c-4.778-3.843-9.253-7.931-13.725-12.12-4.212-3.922-8.602-7.562-13.092-11.166-3.543-2.938-6.9-6.06-10.268-9.194a185.64 185.64 0 00-9.915-8.52c-4.778-3.843-9.253-7.931-13.725-12.12-4.212-3.922-8.602-7.562-13.092-11.166-3.543-2.938-6.9-6.06-10.268-9.194a185.64 185.64 0 00-9.915-8.52c-4.778-3.843-9.253-7.931-13.725-12.12-4.212-3.922-8.602-7.562-13.092-11.166-3.543-2.938-6.9-6.06-10.268-9.194a185.64 185.64 0 00-9.915-8.52c-4.778-3.843-9.253-7.931-13.725-12.12-4.212-3.922-8.602-7.562-13.092-11.166-3.535-2.931-6.889-6.043-10.244-9.176-4.262-3.953-8.727-7.565-13.322-11.128-2.156-1.951-2.987-3.381-4.18-5.973a5317479.918 5317479.918 0 0135.285-21.422 32467.506 32467.506 0 0040.92-24.876 1249745.361 1249745.361 0 0020.044-12.202l57.501-35 2.874-1.75a314329.086 314329.086 0 0119.95-12.145c11.069-6.74 22.143-13.47 33.22-20.194a25815.21 25815.21 0 0032.412-19.71c5.726-3.487 11.454-6.972 17.181-10.458 4.73-2.879 9.459-5.758 14.187-8.638 11.069-6.74 22.143-13.47 33.22-20.194a25815.21 25815.21 0 0032.412-19.71L1002.5 893l5.75-3.5 11.5-7 2.874-1.75a314329.086 314329.086 0 0119.95-12.145c11.069-6.74 22.143-13.47 33.22-20.194A27869.62 27869.62 0 001111 827l12.625-7.687 2.929-1.784 2.735-1.666 2.397-1.46c2.433-1.475 4.874-2.939 7.314-4.403l-633-1c3.374-12.372 3.374-12.372 4.903-16.466l1.051-2.837 1.124-2.99 1.21-3.257c.863-2.327 1.73-4.653 2.597-6.978 2.376-6.37 4.734-12.745 7.092-19.12l.745-2.016c5.49-14.844 10.845-29.734 16.18-44.633l3.613-10.068.72-2.006c.715-1.995 1.432-3.99 2.148-5.984l.71-1.981a114577.487 114577.487 0 016.288-17.513 7527.487 7527.487 0 017.9-21.906c.799-2.209 1.595-4.419 2.388-6.63C573.09 621.136 582.503 599.445 604 585l2.54-1.715c10.79-6.792 24.739-12.405 37.673-12.413z" fill="#BCD6FF"/><path d="M644.213 570.872l3.145-.009 3.441.006 3.682-.007c3.384-.004 6.768-.005 10.152-.003 3.678 0 7.355-.004 11.033-.008 7.299-.008 14.598-.01 21.897-.01 8.741-.002 17.482-.008 26.223-.015 21.13-.016 42.26-.022 63.39-.027 9.996-.002 19.993-.006 29.989-.01a374089.197 374089.197 0 01128.523-.03h3.247c34.727-.003 69.455-.02 104.182-.042a172765.97 172765.97 0 01122.24-.04h3.009c15.968-.002 31.937-.013 47.905-.027 16.055-.015 32.111-.018 48.167-.01 9.534.004 19.07 0 28.604-.015 6.376-.01 12.752-.009 19.128.001 3.628.006 7.256.006 10.885-.006 31.381-.103 54.956 4.661 77.945 27.38 8.259 8.399 13.67 18.618 17.844 29.535l1.276 3.267c4.254 10.976 8.233 22.052 12.15 33.153 1.72 4.868 3.45 9.733 5.178 14.598l2.67 7.521a7146.904 7146.904 0 0011.733 32.786c1.084 3.008 2.166 6.016 3.248 9.025a7395.698 7395.698 0 0011.949 32.949 15801.2 15801.2 0 014.413 12.108c1.427 3.917 2.86 7.832 4.298 11.746 1.098 2.995 2.188 5.994 3.28 8.992l1.219 3.3 1.1 3.035.966 2.639C1493 805 1493 805 1493 809a255086.154 255086.154 0 01-141.304.064c-93.614.022-187.229-.025-546.383-.56l-11.03-.018c-82.31-.134-164.62-.273-287.283-.486.579-4.274 1.229-8.159 2.708-12.214l1.071-2.967 1.174-3.186 1.234-3.399c1.114-3.064 2.235-6.125 3.358-9.186 1.193-3.255 2.378-6.514 3.565-9.771 7.243-19.877 14.566-39.725 21.909-59.565a3444.087 3444.087 0 0013.19-36.246l2.258-6.314c2.913-8.141 2.913-8.141 5.805-16.29C572.11 623.849 581.032 600.434 604 585l2.54-1.715c10.79-6.792 24.739-12.405 37.673-12.413z" fill="#FEFEFF"/><path d="M649 1109h700c-1.962 3.924-3.395 5.497-6.625 8.313l-2.727 2.394L1337 1122a9592.06 9592.06 0 00-4 3.5l-1.938 1.688c-3.237 2.845-6.429 5.74-9.628 8.628a537.057 537.057 0 01-6.371 5.621c-3.229 2.811-6.4 5.679-9.563 8.563a642.735 642.735 0 01-11.473 10.223 651.599 651.599 0 00-7.027 6.277 637.265 637.265 0 01-8.938 7.938c-3.174 2.76-6.277 5.59-9.374 8.437a217.902 217.902 0 01-10.938 9.375c-6.05 4.878-11.653 10.193-17.305 15.52a289.186 289.186 0 01-9.558 8.593c-2.324 2.016-4.604 4.075-6.887 6.137a829.036 829.036 0 01-10.938 9.688 718.073 718.073 0 00-7.062 6.312 829.036 829.036 0 01-10.938 9.688 718.073 718.073 0 00-7.062 6.312 798.165 798.165 0 01-10.95 9.695c-2.31 2.035-4.585 4.107-6.862 6.18a223.967 223.967 0 01-10.376 8.813c-6.065 4.902-11.694 10.235-17.367 15.582a289.186 289.186 0 01-9.558 8.593c-2.324 2.016-4.604 4.075-6.887 6.137a829.036 829.036 0 01-10.938 9.688 718.073 718.073 0 00-7.062 6.312c-5.323 4.8-10.689 9.54-16.152 14.18-6.581 5.594-13.046 11.277-19.368 17.164a372.51 372.51 0 01-10.543 9.46 225.272 225.272 0 00-4.187 3.766c-18.393 16.92-35.98 26.979-61.68 26.278-6.476-.335-12.115-1.791-18.07-4.348-.989-.4-1.977-.802-2.996-1.215-8.564-3.842-15.13-9.541-22.004-15.785l-2.656-2.395a1940.884 1940.884 0 01-4.89-4.433c-2.554-2.26-5.174-4.408-7.829-6.547-4.554-3.682-8.862-7.554-13.146-11.54a185.602 185.602 0 00-9.917-8.522c-4.777-3.843-9.252-7.931-13.724-12.12-4.212-3.922-8.602-7.562-13.092-11.166-3.01-2.495-5.885-5.115-8.746-7.777-3.733-3.474-7.524-6.8-11.5-10-4.519-3.636-8.78-7.468-13.022-11.416a185.627 185.627 0 00-9.915-8.522c-4.778-3.842-9.253-7.93-13.725-12.118-4.212-3.923-8.602-7.563-13.092-11.167-3.543-2.938-6.9-6.06-10.268-9.194a185.64 185.64 0 00-9.915-8.52c-4.778-3.843-9.253-7.931-13.725-12.12-4.212-3.922-8.602-7.562-13.092-11.166-3.543-2.938-6.9-6.06-10.268-9.194a185.64 185.64 0 00-9.915-8.52c-4.778-3.843-9.253-7.931-13.725-12.12-4.212-3.922-8.602-7.562-13.092-11.166-3.543-2.938-6.9-6.06-10.268-9.194a185.64 185.64 0 00-9.915-8.52c-4.778-3.843-9.253-7.931-13.725-12.12-4.212-3.922-8.602-7.562-13.092-11.166-3.535-2.931-6.887-6.043-10.244-9.174-4.277-3.962-8.743-7.617-13.322-11.228C651 1112 651 1112 649 1109z" fill="#EFF4FF"/></svg>